<svg xmlns="http://www.w3.org/2000/svg" width="24" height="24" role="img" viewBox="0 0 24 24" ><title>Racket programming language icon</title><path fill="#fff" d="M23.884 12.004c0 6.554-5.313 11.868-11.868 11.868S.148 18.559.148 12.004C.148 5.45 5.461.136 12.016.136s11.868 5.313 11.868 11.868z"/><path fill="#3e5ba9" d="M21.354 19.329a11.815 11.815 0 002.53-7.325C23.884 5.45 18.571.136 12.016.136a11.84 11.84 0 00-4.059.713c4.818 2.527 11.191 10.773 13.397 18.48z"/><path fill="#9f1d20" d="M10.316 7.706c-1.851-1.994-3.925-3.578-6.12-4.629a11.84 11.84 0 00-4.048 8.926c0 2.992 1.108 5.726 2.935 7.813 1.611-4.84 4.639-9.505 7.233-12.111zm2.187 2.691c-2.569 2.769-5.13 7.616-6.056 12.088a11.817 11.817 0 005.569 1.386c2.069 0 4.015-.53 5.709-1.461-.976-4.511-2.819-8.643-5.222-12.013z"/></svg>